{"title":"Samrat and Co. PreDVDRip-XviD-1CD{VikkyMaxx}[SilverRG]","uid":10060669,"size":736469123,"categoryP":"video","categoryS":"movies","magnet":"?xt=urn:btih:f9170e83f831adbe725dd1a59fc5c30985eb4b28&amp;dn=Samrat+and+Co.+PreDVDRip-XviD-1CD%7BVikkyMaxx%7D%5BSilverRG%5D&amp;tr=udp%3A%2F%2Ftracker.openbittorrent.com%3A80&amp;tr=udp%3A%2F%2Fopen.demonii.com%3A1337&amp;tr=udp%3A%2F%2Ftracker.coppersurfer.tk%3A6969&amp;tr=udp%3A%2F%2Fexodus.desync.com%3A6969","seeders":1,"leechers":0,"uploader":"shailendramaxx","files":16,"time":1398722250,"description":"VikkyMaxx SilverRG Presents\n\n\nGeneral:-\n \nComplete name : Samrat and Co. PreDVDRip-XviD-1CD{VikkyMaxx}[SilverRG]\nFormat : AVI \nFormat/Info : Audio Video Interleave \nFile size : 692 MiB \nDuration : 1h 58mn \nOverall bit rate : 819 Kbps \n\nVideo:-\n \nID : 0 \nFormat : MPEG-4 Visual \nFormat profile : Advanced Simple@L5 \nFormat settings, BVOP : 2 \nFormat settings, QPel : No \nFormat settings, GMC : No warppoints \nFormat settings, Matrix : Default (H.263) \nCodec ID : XVID \nCodec ID/Hint : XviD \nDuration : 1h 58mn \nBit rate : 733 Kbps \nWidth : 640 pixels \nHeight : 272 pixels \nDisplay aspect ratio : 2.35:1 \nFrame rate : 25.000 fps \nColor space : YUV \nChroma subsampling : 4:2:0 \nBit depth : 8 bits \nScan type : Progressive \nCompression mode : Lossy \nBits/(Pixel*Frame) : 0.168 \nStream size : 620 MiB (89%) \nWriting library : XviD 1.2.1 (UTC 2008-12-04) \n\nAudio:-\n \nID : 1 \nFormat : MPEG Audio \nFormat version : Version 1 \nFormat profile : Layer 3 \nMode : Joint stereo \nMode extension : MS Stereo \nCodec ID : 55 \nCodec ID/Hint : MP3 \nDuration : 1h 58mn \nBit rate mode : Constant \nBit rate : 80.0 Kbps \nChannel(s) : 2 channels \nSampling rate : 32.0 KHz \nCompression mode : Lossy \nStream size : 67.6 MiB (10%) \nAlignment : Aligned on interleaves \nInterleave, duration : 160 ms (4.00 video frames) \nInterleave, preload duration : 216 ms \nTitle : 25 Tc0 L2 2ch 48 96 DELAY 0ms \nWriting library : LAME3.99r \nEncoding settings : -m j -V 4 -q 2 -lowpass 13.5 -b 80 \nLanguage : HINDI\n\n\nSCREENS:-\n &lt;a href=&quot;\nhttp://i.imgur.com/VfJHguZ.png&quot; rel=&quot;nofollow&quot; target=&quot;_NEW&quot;&gt;\nhttp://i.imgur.com/VfJHguZ.png&lt;/a&gt;\n &lt;a href=&quot;\nhttp://i.imgur.com/lk8r0lH.png&quot; rel=&quot;nofollow&quot; target=&quot;_NEW&quot;&gt;\nhttp://i.imgur.com/lk8r0lH.png&lt;/a&gt;\n &lt;a href=&quot;\nhttp://i.imgur.com/YBMkfLn.png&quot; rel=&quot;nofollow&quot; target=&quot;_NEW&quot;&gt;\nhttp://i.imgur.com/YBMkfLn.png&lt;/a&gt;\n &lt;a href=&quot;\nhttp://i.imgur.com/dfAQz4t.png&quot; rel=&quot;nofollow&quot; target=&quot;_NEW&quot;&gt;\nhttp://i.imgur.com/dfAQz4t.png&lt;/a&gt;\n &lt;a href=&quot;\nhttp://i.imgur.com/Tr8NB6w.png&quot; rel=&quot;nofollow&quot; target=&quot;_NEW&quot;&gt;\nhttp://i.imgur.com/Tr8NB6w.png&lt;/a&gt;\n &lt;a href=&quot;\nhttp://i.imgur.com/AB0JycQ.png&quot; rel=&quot;nofollow&quot; target=&quot;_NEW&quot;&gt;\nhttp://i.imgur.com/AB0JycQ.png&lt;/a&gt;\n &lt;a href=&quot;\nhttp://i.imgur.com/BpXM1G0.png&quot; rel=&quot;nofollow&quot; target=&quot;_NEW&quot;&gt;\nhttp://i.imgur.com/BpXM1G0.png&lt;/a&gt;\n &lt;a href=&quot;\nhttp://i.imgur.com/265QicM.png&quot; rel=&quot;nofollow&quot; target=&quot;_NEW&quot;&gt;\nhttp://i.imgur.com/265QicM.png&lt;/a&gt;\n &lt;a href=&quot;\nhttp://i.imgur.com/mgqgdLy.png&quot; rel=&quot;nofollow&quot; target=&quot;_NEW&quot;&gt;\nhttp://i.imgur.com/mgqgdLy.png&lt;/a&gt;\n\n\n\n\nSAMPLE AND SCREENSHOTS INCLUDED\n\n    \n             \n             ********** PLEASE SEED AS LONG AS YOU CAN AFTER DOWNLOAD **********\n       \n                    ***** THANK YOU REGARDS - VIKKYMAXX (SilverRG) *****","torrent":{"xt":"urn:btih:f9170e83f831adbe725dd1a59fc5c30985eb4b28","amp;dn":"Samrat+and+Co.+PreDVDRip-XviD-1CD%7BVikkyMaxx%7D%5BSilverRG%5D","amp;tr":["udp%3A%2F%2Ftracker.openbittorrent.com%3A80","udp%3A%2F%2Fopen.demonii.com%3A1337","udp%3A%2F%2Ftracker.coppersurfer.tk%3A6969","udp%3A%2F%2Fexodus.desync.com%3A6969"],"infoHash":"f9170e83f831adbe725dd1a59fc5c30985eb4b28","infoHashBuffer":{"type":"Buffer","data":[249,23,14,131,248,49,173,190,114,93,209,165,159,197,195,9,133,235,75,40]},"announce":[],"urlList":[]}}